<svg xmlns="http://www.w3.org/2000/svg" xmlns:xlink="http://www.w3.org/1999/xlink" width="74" height="74" viewBox="0 0 74 74">
    <defs>
        <path id="a" d="M.728.074h72.69v73.062H.728z"/>
    </defs>
    <g fill="none" fill-rule="evenodd">
        <path fill="#56BBCA" d="M36.836 1C16.984 1.093.91 17.312 1 37.163 1.09 57.01 17.313 73.088 37.164 73 57.014 72.907 73.09 56.683 73 36.835 72.907 16.986 56.685.91 36.836 1"/>
        <path fill="#3D3D3F" d="M31.675 40.078l3.428-9.938a72.055 72.055 0 0 0 1.791-6.525h.057c.465 2.19 1.044 4.091 1.792 6.221l3.631 10.192-10.7.05zM41.352 15l-4.89.022c-.937-.012-1.9-.008-2.87.014l-.605.002-.002.01c-2.55.072-5.123.26-7.38.56l.021 4.616c1.49.098 3.945.35 5.413.562L20 53.352l7.184.648 2.64-7.973 14.512-.067 2.71 7.95L55 53.142 41.352 15z"/>
        <g>
            <mask id="b" fill="#fff">
                <use xlink:href="#a"/>
            </mask>
            <path fill="#3D3D3F" d="M36.924 3.588C18.809 3.67 4.139 18.55 4.222 36.756c.086 18.204 14.887 32.952 33 32.868 18.113-.083 32.785-14.962 32.702-33.168-.083-18.207-14.886-32.952-33-32.868m.315 69.548C17.197 73.226.82 56.916.73 36.773.636 16.628 16.867.167 36.909.073c20.04-.09 36.419 16.223 36.509 36.368.092 20.143-16.138 36.604-36.179 36.695" mask="url(#b)"/>
        </g>
    </g>
</svg>
