<svg xmlns="http://www.w3.org/2000/svg" xmlns:xlink="http://www.w3.org/1999/xlink" width="1440" height="50" viewBox="0 0 1440 50">
    <defs>
        <path id="a" d="M.408 0h8.389v2.415H.408z"/>
        <path id="c" d="M.411 0h9.085v4.364H.411z"/>
        <path id="e" d="M.408 0h8.389v2.415H.408z"/>
        <path id="g" d="M.411 0h9.085v4.364H.411z"/>
        <path id="i" d="M.409 0h8.387v2.415H.409z"/>
        <path id="k" d="M.412 0h9.084v4.364H.412z"/>
        <path id="m" d="M.409 0h8.387v2.415H.409z"/>
        <path id="o" d="M.617.093H8V9.13H.617z"/>
        <path id="q" d="M.412 0h9.084v4.364H.412z"/>
        <path id="s" d="M.408 0h8.389v2.415H.408z"/>
        <path id="u" d="M.411 0h9.085v4.364H.411z"/>
        <path id="w" d="M.408 0h8.389v2.415H.408z"/>
        <path id="y" d="M.411 0h9.085v4.364H.411z"/>
        <path id="A" d="M.409 0h8.387v2.415H.409z"/>
        <path id="C" d="M.412 0h9.084v4.364H.412z"/>
        <path id="E" d="M.409 0h8.387v2.415H.409z"/>
        <path id="G" d="M.617.093H8V9.13H.617z"/>
        <path id="I" d="M.412 0h9.084v4.364H.412z"/>
        <path id="K" d="M.408 0h8.389v2.415H.408z"/>
        <path id="M" d="M.411 0h9.085v4.364H.411z"/>
        <path id="O" d="M.408 0h8.389v2.415H.408z"/>
        <path id="Q" d="M.411 0h9.085v4.364H.411z"/>
    </defs>
    <g fill="none" fill-rule="evenodd">
        <path fill="#FEFEFE" d="M116.968 5.507c5.303 1.516 6.386-2.534 5.41-5.507h-6.327c-.923 2.187-.385 5.135.917 5.507"/>
        <g transform="translate(36)">
            <mask id="b" fill="#fff">
                <use xlink:href="#a"/>
            </mask>
            <path fill="#FEFEFE" d="M7.311 1.488C8.134 1.067 8.602.557 8.797 0H.408c.917 1.952 3.034 3.467 6.903 1.488" mask="url(#b)"/>
        </g>
        <path fill="#FEFEFE" d="M150 52.098c.717-.107 1.387-.488 1.955-1.227 1.054.739 3.63-2.861-1.955-5.978a18.082 18.082 0 0 0-2.344-1.08c-10.104-3.852-2.722 9.043 2.344 8.285M133.331 36.772c5.211-4.786 1.826-6.61-.709-6.907-8.08-.954-.574 11.928.71 6.907M141.526 16.74c-5.887 2.383-4.259 11.967 1.517 8.79.576-.315.592-.926.303-1.256.102-.125 1.861-9.025-1.82-7.533M3.376 21.152c1.613.47 7.439-3.212 1.993-8.166C.25 8.33-1.704 24.881 3.376 21.152M7.65 29.634c-2.763-1.248-6.983.813-3.56 6.358 1.966 3.177 5.262 2.685 5.34 1.86 4.376-2.029 2.557-6.26-1.78-8.218M112.635 13.767c3.896-2.341 1.412-6.366-3.124-7.955-2.89-1.013-6.63 1.348-2.368 6.541 2.447 2.975 5.556 2.232 5.492 1.414M30.848 34.798c-.065 1.332 4.23 1.285 5.902-.548 1.765-1.936-.201-6.829-2.306-7.517-1.69-.553-4.582-.033-4.124 7.386a.737.737 0 0 0 .528.68M56.29 23.573c-4.687-6.245-8.7 5.55-5.119 6.446.878 1.947 8.921-1.391 5.119-6.446M42.435 17.601c1.53-.466 1.167-5.812-1.369-7.4h-3.302c-.168.08-.339.171-.515.274-7.178 4.216 3.508 11.084 5.186 7.126M51.287 14.192a.693.693 0 0 0 .687.511c14.536.165-.048-16.358-2.156-4.05-.218 1.28-.134 3.38 1.47 3.54M86.126 17.485c.4 6.25 10.544-11.772 1.267-9.202-5.502 1.526-3.373 9.787-1.267 9.202M76.458 48.14c4.711 4.773 7.839-14.32.36-7.75-2.782 2.445-2.996 7.229-.36 7.75M19.545 9.467c1.954 3.944 10.007 1.303 7.698-2.97-2.504-4.626-11.8.664-7.698 2.97M89.832 26.682c1.104 5.193 12.438-1.902 6.93-5.193-7.135-4.263-7.083 4.47-6.93 5.193M121.67 41.814c-1.311-1.679-3.455-2.2-5.44-.043-1.79 1.947-3.54 6.513.432 7.755 6.344 1.988 6.476-5.83 5.009-7.712M126.74 20.615c.059 1.988 5.49-.13 5.736-3.303.515-6.634-8.354-7.326-7.67.434.1 1.118.589 2.813 1.935 2.87M143.505 4.2c-.799-2.486-4.986-1.249-5.559-.705-12.189 1.736 9.228 12.17 5.56.704M40.591 42.364c-.663 3.563 2.08 5.918 2.94 5.034.758.364 5.24-.484 5.308-4.708.095-5.972-7.686-3.34-8.248-.326M58.817 46.942c9.48-3.493 5.757-6.74 4.802-7.25-7.58-4.06-7.36 11.48-4.802 7.25M71.885 8.966c-.642-10.593-4.973-7.786-5.764-6.971-6.285 6.462 9.2 10.792 5.764 6.97M113.291 21.674c-5.32-.837-1.539 14.928 3.225 9.767 1.762 1.05 4.588-8.54-3.225-9.767M73.834 26.498c1.185-5.705-13.008-1.545-8.867 3.522-1.073 1.895 7.128 4.856 8.867-3.522M17.424 46.535c2.86 3.818 5.488 1.19 5.407 1.31 7.02-6.42-11.57-9.53-5.407-1.31M16.623 24.283c1.802 4.417 5.008 2.54 4.9 2.634 8.416-4.437-8.785-12.145-4.9-2.634"/>
        <g transform="translate(7)">
            <mask id="d" fill="#fff">
                <use xlink:href="#c"/>
            </mask>
            <path fill="#FEFEFE" d="M6.16 4.128C9.105 2.727 9.824 1.242 9.37 0H.411c.024.715.247 1.58.726 2.613 1.065 2.299 4.5 1.763 5.022 1.515" mask="url(#d)"/>
        </g>
        <path fill="#FEFEFE" d="M1.955 50.87c1.054.74 3.63-2.86-1.955-5.977v7.204c.717-.107 1.387-.488 1.955-1.227M95.828 41.23c7.31 10.143 11.387-11.807 2.491-4.641-.748.604-3.605 3.096-2.49 4.642M266.968 5.507c5.303 1.516 6.386-2.534 5.41-5.507h-6.327c-.923 2.187-.385 5.135.917 5.507"/>
        <g transform="translate(186)">
            <mask id="f" fill="#fff">
                <use xlink:href="#e"/>
            </mask>
            <path fill="#FEFEFE" d="M7.311 1.488C8.134 1.067 8.602.557 8.797 0H.408c.917 1.952 3.034 3.467 6.903 1.488" mask="url(#f)"/>
        </g>
        <path fill="#FEFEFE" d="M300 52.098c.716-.107 1.387-.488 1.954-1.227 1.055.739 3.63-2.861-1.954-5.978a18.038 18.038 0 0 0-2.344-1.08c-10.103-3.852-2.723 9.043 2.344 8.285M283.331 36.772c5.211-4.786 1.826-6.61-.709-6.907-8.08-.954-.574 11.928.71 6.907M291.526 16.74c-5.887 2.383-4.259 11.967 1.517 8.79.576-.315.592-.926.303-1.256.102-.125 1.861-9.025-1.82-7.533M153.376 21.152c1.613.47 7.439-3.212 1.993-8.166-5.119-4.656-7.073 11.895-1.993 8.166M157.65 29.634c-2.763-1.248-6.983.813-3.56 6.358 1.966 3.177 5.262 2.685 5.34 1.86 4.376-2.029 2.557-6.26-1.78-8.218M262.635 13.767c3.896-2.341 1.412-6.366-3.124-7.955-2.89-1.013-6.63 1.348-2.368 6.541 2.447 2.975 5.556 2.232 5.492 1.414M180.848 34.798c-.065 1.332 4.23 1.285 5.902-.548 1.765-1.936-.201-6.829-2.306-7.517-1.69-.553-4.582-.033-4.124 7.386a.737.737 0 0 0 .528.68M206.29 23.573c-4.687-6.245-8.7 5.55-5.119 6.446.878 1.947 8.921-1.391 5.119-6.446M192.435 17.601c1.53-.466 1.167-5.812-1.369-7.4h-3.302c-.168.08-.339.171-.515.274-7.178 4.216 3.508 11.084 5.186 7.126M201.287 14.192a.693.693 0 0 0 .687.511c14.536.165-.048-16.358-2.156-4.05-.218 1.28-.134 3.38 1.47 3.54M236.125 17.485c.401 6.25 10.546-11.772 1.268-9.202-5.502 1.526-3.373 9.787-1.268 9.202M226.458 48.14c4.711 4.773 7.839-14.32.36-7.75-2.782 2.445-2.996 7.229-.36 7.75M169.545 9.467c1.954 3.944 10.007 1.303 7.698-2.97-2.504-4.626-11.8.664-7.698 2.97M239.832 26.682c1.104 5.193 12.438-1.902 6.93-5.193-7.135-4.263-7.083 4.47-6.93 5.193M271.67 41.814c-1.311-1.679-3.455-2.2-5.44-.043-1.79 1.947-3.54 6.513.432 7.755 6.344 1.988 6.476-5.83 5.009-7.712M276.74 20.615c.059 1.988 5.49-.13 5.736-3.303.515-6.634-8.354-7.326-7.67.434.1 1.118.589 2.813 1.935 2.87M293.505 4.2c-.799-2.486-4.986-1.249-5.559-.705-12.189 1.736 9.228 12.17 5.56.704M190.591 42.364c-.663 3.563 2.08 5.918 2.94 5.034.758.364 5.24-.484 5.308-4.708.095-5.972-7.686-3.34-8.248-.326M208.817 46.942c9.48-3.493 5.757-6.74 4.802-7.25-7.58-4.06-7.36 11.48-4.802 7.25M221.885 8.966c-.642-10.593-4.973-7.786-5.764-6.971-6.285 6.462 9.2 10.792 5.764 6.97M263.291 21.674c-5.32-.837-1.539 14.928 3.225 9.767 1.762 1.05 4.588-8.54-3.225-9.767M223.834 26.498c1.185-5.705-13.008-1.545-8.867 3.522-1.073 1.895 7.128 4.856 8.867-3.522M167.424 46.535c2.86 3.818 5.488 1.19 5.407 1.31 7.02-6.42-11.57-9.53-5.407-1.31M166.624 24.283c1.802 4.417 5.007 2.54 4.9 2.634 8.415-4.437-8.786-12.145-4.9-2.634"/>
        <g transform="translate(157)">
            <mask id="h" fill="#fff">
                <use xlink:href="#g"/>
            </mask>
            <path fill="#FEFEFE" d="M6.16 4.128C9.105 2.727 9.824 1.242 9.37 0H.411c.024.715.247 1.58.726 2.613 1.065 2.299 4.5 1.763 5.022 1.515" mask="url(#h)"/>
        </g>
        <path fill="#FEFEFE" d="M245.828 41.23c7.31 10.143 11.387-11.807 2.491-4.641-.748.604-3.605 3.096-2.49 4.642M416.968 5.507c5.303 1.516 6.386-2.534 5.41-5.507h-6.327c-.924 2.187-.386 5.135.917 5.507"/>
        <g transform="translate(336)">
            <mask id="j" fill="#fff">
                <use xlink:href="#i"/>
            </mask>
            <path fill="#FEFEFE" d="M7.312 1.488C8.134 1.067 8.602.557 8.796 0H.409c.917 1.952 3.033 3.467 6.903 1.488" mask="url(#j)"/>
        </g>
        <path fill="#FEFEFE" d="M450 52.098c.716-.107 1.387-.488 1.954-1.227 1.055.739 3.63-2.861-1.954-5.978a18.038 18.038 0 0 0-2.344-1.08c-10.103-3.852-2.723 9.043 2.344 8.285M433.33 36.772c5.213-4.786 1.827-6.61-.708-6.907-8.08-.954-.574 11.928.709 6.907M441.526 16.74c-5.887 2.383-4.26 11.967 1.517 8.79.577-.315.592-.926.304-1.256.1-.125 1.86-9.025-1.821-7.533M303.375 21.152c1.613.47 7.44-3.212 1.993-8.166-5.118-4.656-7.072 11.895-1.993 8.166M307.65 29.634c-2.763-1.248-6.982.813-3.56 6.358 1.966 3.177 5.26 2.685 5.34 1.86 4.376-2.029 2.557-6.26-1.78-8.218M412.635 13.767c3.896-2.341 1.412-6.366-3.124-7.955-2.892-1.013-6.63 1.348-2.368 6.541 2.446 2.975 5.556 2.232 5.492 1.414M330.847 34.798c-.064 1.332 4.231 1.285 5.903-.548 1.764-1.936-.202-6.829-2.306-7.517-1.69-.553-4.582-.033-4.124 7.386a.736.736 0 0 0 .527.68M356.29 23.573c-4.687-6.245-8.7 5.55-5.118 6.446.878 1.947 8.92-1.391 5.118-6.446M342.435 17.601c1.53-.466 1.167-5.812-1.368-7.4h-3.303c-.168.08-.34.171-.515.274-7.177 4.216 3.507 11.084 5.186 7.126M351.287 14.192a.694.694 0 0 0 .687.511c14.537.165-.047-16.358-2.156-4.05-.218 1.28-.134 3.38 1.469 3.54M386.125 17.485c.401 6.25 10.546-11.772 1.269-9.202-5.504 1.526-3.373 9.787-1.269 9.202M376.457 48.14c4.712 4.773 7.84-14.32.36-7.75-2.78 2.445-2.995 7.229-.36 7.75M319.545 9.467c1.953 3.944 10.007 1.303 7.697-2.97-2.504-4.626-11.8.664-7.697 2.97M389.832 26.682c1.105 5.193 12.439-1.902 6.93-5.193-7.135-4.263-7.084 4.47-6.93 5.193M421.67 41.814c-1.31-1.679-3.455-2.2-5.44-.043-1.79 1.947-3.539 6.513.432 7.755 6.344 1.988 6.476-5.83 5.008-7.712M426.74 20.615c.059 1.988 5.49-.13 5.736-3.303.515-6.634-8.354-7.326-7.67.434.1 1.118.588 2.813 1.935 2.87M443.505 4.2c-.8-2.486-4.986-1.249-5.559-.705-12.189 1.736 9.228 12.17 5.56.704M340.591 42.364c-.663 3.563 2.08 5.918 2.94 5.034.758.364 5.24-.484 5.307-4.708.096-5.972-7.685-3.34-8.247-.326M358.817 46.942c9.48-3.493 5.758-6.74 4.802-7.25-7.58-4.06-7.36 11.48-4.802 7.25M371.885 8.966c-.643-10.593-4.974-7.786-5.765-6.971-6.285 6.462 9.202 10.792 5.765 6.97M413.29 21.674c-5.319-.837-1.538 14.928 3.226 9.767 1.762 1.05 4.587-8.54-3.226-9.767M373.834 26.498c1.185-5.705-13.009-1.545-8.867 3.522-1.072 1.895 7.129 4.856 8.867-3.522M317.424 46.535c2.86 3.818 5.487 1.19 5.407 1.31 7.02-6.42-11.57-9.53-5.407-1.31M316.623 24.283c1.803 4.417 5.01 2.54 4.9 2.634 8.415-4.437-8.786-12.145-4.9-2.634"/>
        <g transform="translate(307)">
            <mask id="l" fill="#fff">
                <use xlink:href="#k"/>
            </mask>
            <path fill="#FEFEFE" d="M6.159 4.128C9.106 2.727 9.825 1.242 9.37 0H.41c.024.715.247 1.58.727 2.613 1.065 2.299 4.5 1.763 5.02 1.515" mask="url(#l)"/>
        </g>
        <path fill="#FEFEFE" d="M395.829 41.23c7.309 10.143 11.386-11.807 2.49-4.641-.747.604-3.605 3.096-2.49 4.642M566.968 5.507c5.303 1.516 6.386-2.534 5.41-5.507h-6.327c-.924 2.187-.386 5.135.917 5.507"/>
        <g transform="translate(486)">
            <mask id="n" fill="#fff">
                <use xlink:href="#m"/>
            </mask>
            <path fill="#FEFEFE" d="M7.312 1.488C8.134 1.067 8.602.557 8.796 0H.409c.917 1.952 3.033 3.467 6.903 1.488" mask="url(#n)"/>
        </g>
        <g transform="translate(592 43)">
            <mask id="p" fill="#fff">
                <use xlink:href="#o"/>
            </mask>
            <path fill="#FEFEFE" d="M5.656.813C-4.448-3.04 2.933 9.855 8 9.097V1.893A18.095 18.095 0 0 0 5.656.813" mask="url(#p)"/>
        </g>
        <path fill="#FEFEFE" d="M583.33 36.772c5.213-4.786 1.827-6.61-.708-6.907-8.08-.954-.573 11.928.709 6.907M591.526 16.74c-5.887 2.383-4.26 11.967 1.517 8.79.577-.315.592-.926.304-1.256.102-.125 1.86-9.025-1.821-7.533M453.375 21.152c1.613.47 7.44-3.212 1.993-8.166-5.118-4.656-7.072 11.895-1.993 8.166M457.65 29.634c-2.763-1.248-6.982.813-3.56 6.358 1.966 3.177 5.26 2.685 5.34 1.86 4.376-2.029 2.557-6.26-1.78-8.218M562.635 13.767c3.896-2.341 1.412-6.366-3.124-7.955-2.892-1.013-6.63 1.348-2.368 6.541 2.446 2.975 5.556 2.232 5.492 1.414M480.847 34.798c-.064 1.332 4.231 1.285 5.903-.548 1.764-1.936-.202-6.829-2.306-7.517-1.69-.553-4.582-.033-4.124 7.386a.736.736 0 0 0 .527.68M506.29 23.573c-4.687-6.245-8.7 5.55-5.118 6.446.878 1.947 8.92-1.391 5.118-6.446M492.435 17.601c1.53-.466 1.167-5.812-1.368-7.4h-3.303c-.168.08-.34.171-.515.274-7.177 4.216 3.507 11.084 5.186 7.126M501.287 14.192a.694.694 0 0 0 .687.511c14.537.165-.047-16.358-2.156-4.05-.218 1.28-.134 3.38 1.469 3.54M536.125 17.485c.402 6.25 10.545-11.772 1.269-9.202-5.504 1.526-3.374 9.787-1.269 9.202M526.457 48.14c4.712 4.773 7.84-14.32.36-7.75-2.78 2.445-2.995 7.229-.36 7.75M469.545 9.467c1.953 3.944 10.007 1.303 7.697-2.97-2.504-4.626-11.8.664-7.697 2.97M539.832 26.682c1.105 5.193 12.438-1.902 6.93-5.193-7.134-4.263-7.083 4.47-6.93 5.193M571.67 41.814c-1.31-1.679-3.455-2.2-5.44-.043-1.79 1.947-3.539 6.513.432 7.755 6.344 1.988 6.476-5.83 5.008-7.712M576.74 20.615c.059 1.988 5.49-.13 5.736-3.303.515-6.634-8.354-7.326-7.671.434.1 1.118.589 2.813 1.936 2.87M593.505 4.2c-.8-2.486-4.986-1.249-5.559-.705-12.189 1.736 9.228 12.17 5.56.704M490.591 42.364c-.663 3.563 2.08 5.918 2.94 5.034.758.364 5.24-.484 5.307-4.708.096-5.972-7.685-3.34-8.247-.326M508.817 46.942c9.48-3.493 5.758-6.74 4.802-7.25-7.58-4.06-7.36 11.48-4.802 7.25M521.885 8.966c-.643-10.593-4.974-7.786-5.765-6.971-6.285 6.462 9.202 10.792 5.765 6.97M563.29 21.674c-5.318-.837-1.537 14.928 3.226 9.767 1.763 1.05 4.588-8.54-3.226-9.767M523.833 26.498c1.186-5.705-13.007-1.545-8.865 3.522-1.073 1.895 7.128 4.856 8.865-3.522M467.424 46.535c2.86 3.818 5.487 1.19 5.407 1.31 7.02-6.42-11.57-9.53-5.407-1.31M466.623 24.283c1.803 4.417 5.01 2.54 4.9 2.634 8.415-4.437-8.786-12.145-4.9-2.634"/>
        <g transform="translate(457)">
            <mask id="r" fill="#fff">
                <use xlink:href="#q"/>
            </mask>
            <path fill="#FEFEFE" d="M6.159 4.128C9.106 2.727 9.825 1.242 9.37 0H.41c.024.715.247 1.58.727 2.613 1.065 2.299 4.5 1.763 5.02 1.515" mask="url(#r)"/>
        </g>
        <path fill="#FEFEFE" d="M545.829 41.23c7.309 10.143 11.386-11.807 2.49-4.641-.747.604-3.605 3.096-2.49 4.642"/>
        <g>
            <path fill="#FEFEFE" d="M716.968 5.507c5.303 1.516 6.386-2.534 5.41-5.507h-6.327c-.923 2.187-.385 5.135.917 5.507"/>
            <g transform="translate(636)">
                <mask id="t" fill="#fff">
                    <use xlink:href="#s"/>
                </mask>
                <path fill="#FEFEFE" d="M7.311 1.488C8.134 1.067 8.602.557 8.797 0H.408c.917 1.952 3.034 3.467 6.903 1.488" mask="url(#t)"/>
            </g>
            <path fill="#FEFEFE" d="M750 52.098c.717-.107 1.387-.488 1.955-1.227 1.054.739 3.63-2.861-1.955-5.978a18.082 18.082 0 0 0-2.344-1.08c-10.104-3.852-2.722 9.043 2.344 8.285M733.331 36.772c5.211-4.786 1.826-6.61-.709-6.907-8.08-.954-.574 11.928.71 6.907M741.526 16.74c-5.887 2.383-4.259 11.967 1.517 8.79.576-.315.592-.926.303-1.256.102-.125 1.861-9.025-1.82-7.533M603.376 21.152c1.613.47 7.439-3.212 1.993-8.166-5.119-4.656-7.073 11.895-1.993 8.166M607.65 29.634c-2.763-1.248-6.983.813-3.56 6.358 1.966 3.177 5.262 2.685 5.34 1.86 4.376-2.029 2.557-6.26-1.78-8.218M712.635 13.767c3.896-2.341 1.412-6.366-3.124-7.955-2.89-1.013-6.63 1.348-2.368 6.541 2.447 2.975 5.556 2.232 5.492 1.414M630.848 34.798c-.065 1.332 4.23 1.285 5.902-.548 1.765-1.936-.201-6.829-2.306-7.517-1.69-.553-4.582-.033-4.124 7.386a.737.737 0 0 0 .528.68M656.29 23.573c-4.687-6.245-8.7 5.55-5.119 6.446.878 1.947 8.921-1.391 5.119-6.446M642.435 17.601c1.53-.466 1.167-5.812-1.369-7.4h-3.302c-.168.08-.339.171-.515.274-7.178 4.216 3.508 11.084 5.186 7.126M651.287 14.192a.693.693 0 0 0 .687.511c14.536.165-.048-16.358-2.156-4.05-.218 1.28-.134 3.38 1.47 3.54M686.125 17.485c.401 6.25 10.545-11.772 1.268-9.202-5.503 1.526-3.373 9.787-1.268 9.202M676.458 48.14c4.711 4.773 7.839-14.32.36-7.75-2.782 2.445-2.996 7.229-.36 7.75M619.545 9.467c1.954 3.944 10.007 1.303 7.698-2.97-2.504-4.626-11.8.664-7.698 2.97M689.832 26.682c1.104 5.193 12.438-1.902 6.93-5.193-7.135-4.263-7.083 4.47-6.93 5.193M721.67 41.814c-1.311-1.679-3.455-2.2-5.44-.043-1.79 1.947-3.54 6.513.432 7.755 6.344 1.988 6.476-5.83 5.009-7.712M726.74 20.615c.059 1.988 5.49-.13 5.736-3.303.515-6.634-8.354-7.326-7.67.434.1 1.118.589 2.813 1.935 2.87M743.505 4.2c-.799-2.486-4.986-1.249-5.559-.705-12.189 1.736 9.228 12.17 5.56.704M640.591 42.364c-.663 3.563 2.08 5.918 2.94 5.034.758.364 5.24-.484 5.308-4.708.095-5.972-7.686-3.34-8.248-.326M658.817 46.942c9.48-3.493 5.757-6.74 4.802-7.25-7.58-4.06-7.36 11.48-4.802 7.25M671.885 8.966c-.642-10.593-4.973-7.786-5.764-6.971-6.285 6.462 9.2 10.792 5.764 6.97M713.291 21.674c-5.32-.837-1.539 14.928 3.225 9.767 1.762 1.05 4.588-8.54-3.225-9.767M673.834 26.498c1.185-5.705-13.008-1.545-8.867 3.522-1.073 1.895 7.128 4.856 8.867-3.522M617.424 46.535c2.86 3.818 5.488 1.19 5.407 1.31 7.02-6.42-11.57-9.53-5.407-1.31M616.624 24.283c1.802 4.417 5.008 2.54 4.9 2.634 8.415-4.437-8.786-12.145-4.9-2.634"/>
            <g transform="translate(607)">
                <mask id="v" fill="#fff">
                    <use xlink:href="#u"/>
                </mask>
                <path fill="#FEFEFE" d="M6.16 4.128C9.105 2.727 9.824 1.242 9.37 0H.411c.024.715.247 1.58.726 2.613 1.065 2.299 4.5 1.763 5.022 1.515" mask="url(#v)"/>
            </g>
            <path fill="#FEFEFE" d="M601.955 50.87c1.054.74 3.63-2.86-1.955-5.977v7.204c.717-.107 1.387-.488 1.955-1.227M695.828 41.23c7.31 10.143 11.387-11.807 2.491-4.641-.748.604-3.605 3.096-2.49 4.642M866.968 5.507c5.303 1.516 6.386-2.534 5.41-5.507h-6.327c-.923 2.187-.385 5.135.917 5.507"/>
            <g transform="translate(786)">
                <mask id="x" fill="#fff">
                    <use xlink:href="#w"/>
                </mask>
                <path fill="#FEFEFE" d="M7.311 1.488C8.134 1.067 8.602.557 8.797 0H.408c.917 1.952 3.034 3.467 6.903 1.488" mask="url(#x)"/>
            </g>
            <path fill="#FEFEFE" d="M900 52.098c.716-.107 1.387-.488 1.954-1.227 1.056.739 3.63-2.861-1.953-5.978a18.038 18.038 0 0 0-2.345-1.08c-10.103-3.852-2.722 9.043 2.345 8.285M883.331 36.772c5.211-4.786 1.826-6.61-.709-6.907-8.08-.954-.574 11.928.71 6.907M891.526 16.74c-5.887 2.383-4.259 11.967 1.517 8.79.576-.315.592-.926.303-1.256.102-.125 1.861-9.025-1.82-7.533M753.376 21.152c1.613.47 7.439-3.212 1.993-8.166-5.119-4.656-7.073 11.895-1.993 8.166M757.65 29.634c-2.763-1.248-6.983.813-3.56 6.358 1.966 3.177 5.262 2.685 5.34 1.86 4.376-2.029 2.557-6.26-1.78-8.218M862.635 13.767c3.896-2.341 1.412-6.366-3.124-7.955-2.89-1.013-6.63 1.348-2.368 6.541 2.447 2.975 5.556 2.232 5.492 1.414M780.848 34.798c-.065 1.332 4.23 1.285 5.902-.548 1.765-1.936-.201-6.829-2.306-7.517-1.69-.553-4.582-.033-4.124 7.386a.737.737 0 0 0 .528.68M806.29 23.573c-4.687-6.245-8.7 5.55-5.119 6.446.878 1.947 8.921-1.391 5.119-6.446M792.435 17.601c1.53-.466 1.167-5.812-1.369-7.4h-3.302c-.168.08-.339.171-.515.274-7.178 4.216 3.508 11.084 5.186 7.126M801.287 14.192a.693.693 0 0 0 .687.511c14.536.165-.048-16.358-2.156-4.05-.218 1.28-.134 3.38 1.47 3.54M836.125 17.485c.401 6.25 10.546-11.772 1.268-9.202-5.502 1.526-3.373 9.787-1.268 9.202M826.458 48.14c4.711 4.773 7.839-14.32.36-7.75-2.782 2.445-2.996 7.229-.36 7.75M769.545 9.467c1.954 3.944 10.007 1.303 7.698-2.97-2.504-4.626-11.8.664-7.698 2.97M839.832 26.682c1.104 5.193 12.438-1.902 6.93-5.193-7.135-4.263-7.083 4.47-6.93 5.193M871.67 41.814c-1.311-1.679-3.455-2.2-5.44-.043-1.79 1.947-3.54 6.513.432 7.755 6.344 1.988 6.476-5.83 5.009-7.712M876.74 20.615c.059 1.988 5.49-.13 5.736-3.303.515-6.634-8.354-7.326-7.67.434.1 1.118.589 2.813 1.935 2.87M893.505 4.2c-.799-2.486-4.986-1.249-5.559-.705-12.189 1.736 9.228 12.17 5.56.704M790.591 42.364c-.663 3.563 2.08 5.918 2.94 5.034.758.364 5.24-.484 5.308-4.708.095-5.972-7.686-3.34-8.248-.326M808.817 46.942c9.48-3.493 5.757-6.74 4.802-7.25-7.58-4.06-7.36 11.48-4.802 7.25M821.885 8.966c-.642-10.593-4.973-7.786-5.764-6.971-6.285 6.462 9.2 10.792 5.764 6.97M863.291 21.674c-5.32-.837-1.539 14.928 3.225 9.767 1.762 1.05 4.588-8.54-3.225-9.767M823.834 26.498c1.185-5.705-13.008-1.545-8.867 3.522-1.073 1.895 7.128 4.856 8.867-3.522M767.424 46.535c2.86 3.818 5.488 1.19 5.407 1.31 7.02-6.42-11.57-9.53-5.407-1.31M766.624 24.283c1.802 4.417 5.007 2.54 4.9 2.634 8.415-4.437-8.786-12.145-4.9-2.634"/>
            <g transform="translate(757)">
                <mask id="z" fill="#fff">
                    <use xlink:href="#y"/>
                </mask>
                <path fill="#FEFEFE" d="M6.16 4.128C9.105 2.727 9.824 1.242 9.37 0H.411c.024.715.247 1.58.726 2.613 1.065 2.299 4.5 1.763 5.022 1.515" mask="url(#z)"/>
            </g>
            <path fill="#FEFEFE" d="M845.828 41.23c7.31 10.143 11.387-11.807 2.491-4.641-.748.604-3.605 3.096-2.49 4.642M1016.968 5.507c5.303 1.516 6.386-2.534 5.41-5.507h-6.327c-.924 2.187-.386 5.135.917 5.507"/>
            <g transform="translate(936)">
                <mask id="B" fill="#fff">
                    <use xlink:href="#A"/>
                </mask>
                <path fill="#FEFEFE" d="M7.312 1.488C8.134 1.067 8.602.557 8.796 0H.409c.917 1.952 3.033 3.467 6.903 1.488" mask="url(#B)"/>
            </g>
            <path fill="#FEFEFE" d="M1050 52.098c.717-.107 1.388-.488 1.955-1.227 1.055.739 3.63-2.861-1.954-5.978a18.038 18.038 0 0 0-2.345-1.08c-10.103-3.852-2.722 9.043 2.345 8.285M1033.33 36.772c5.213-4.786 1.827-6.61-.708-6.907-8.08-.954-.574 11.928.709 6.907M1041.526 16.74c-5.887 2.383-4.26 11.967 1.517 8.79.577-.315.592-.926.304-1.256.1-.125 1.86-9.025-1.821-7.533M903.375 21.152c1.613.47 7.44-3.212 1.993-8.166-5.118-4.656-7.072 11.895-1.993 8.166M907.65 29.634c-2.763-1.248-6.982.813-3.56 6.358 1.966 3.177 5.26 2.685 5.34 1.86 4.376-2.029 2.557-6.26-1.78-8.218M1012.635 13.767c3.896-2.341 1.412-6.366-3.124-7.955-2.892-1.013-6.63 1.348-2.368 6.541 2.446 2.975 5.556 2.232 5.492 1.414M930.847 34.798c-.064 1.332 4.231 1.285 5.903-.548 1.764-1.936-.202-6.829-2.306-7.517-1.69-.553-4.582-.033-4.124 7.386a.736.736 0 0 0 .527.68M956.29 23.573c-4.687-6.245-8.7 5.55-5.118 6.446.878 1.947 8.92-1.391 5.118-6.446M942.435 17.601c1.53-.466 1.167-5.812-1.368-7.4h-3.303c-.168.08-.34.171-.515.274-7.177 4.216 3.507 11.084 5.186 7.126M951.287 14.192a.694.694 0 0 0 .687.511c14.537.165-.047-16.358-2.156-4.05-.218 1.28-.134 3.38 1.469 3.54M986.125 17.485c.401 6.25 10.546-11.772 1.269-9.202-5.504 1.526-3.373 9.787-1.269 9.202M976.457 48.14c4.712 4.773 7.84-14.32.36-7.75-2.78 2.445-2.995 7.229-.36 7.75M919.545 9.467c1.953 3.944 10.007 1.303 7.697-2.97-2.504-4.626-11.8.664-7.697 2.97M989.832 26.682c1.105 5.193 12.439-1.902 6.93-5.193-7.134-4.263-7.083 4.47-6.93 5.193M1021.67 41.814c-1.31-1.679-3.455-2.2-5.44-.043-1.79 1.947-3.539 6.513.432 7.755 6.344 1.988 6.476-5.83 5.008-7.712M1026.74 20.615c.059 1.988 5.49-.13 5.736-3.303.515-6.634-8.354-7.326-7.67.434.1 1.118.588 2.813 1.935 2.87M1043.505 4.2c-.8-2.486-4.986-1.249-5.559-.705-12.189 1.736 9.228 12.17 5.56.704M940.591 42.364c-.663 3.563 2.08 5.918 2.94 5.034.758.364 5.24-.484 5.307-4.708.096-5.972-7.685-3.34-8.247-.326M958.817 46.942c9.48-3.493 5.758-6.74 4.802-7.25-7.58-4.06-7.36 11.48-4.802 7.25M971.885 8.966c-.643-10.593-4.974-7.786-5.765-6.971-6.285 6.462 9.202 10.792 5.765 6.97M1013.29 21.674c-5.318-.837-1.537 14.928 3.227 9.767 1.762 1.05 4.587-8.54-3.226-9.767M973.833 26.498c1.185-5.705-13.008-1.545-8.866 3.522-1.072 1.895 7.129 4.856 8.867-3.522M917.424 46.535c2.86 3.818 5.487 1.19 5.407 1.31 7.02-6.42-11.57-9.53-5.407-1.31M916.623 24.283c1.802 4.417 5.01 2.54 4.9 2.634 8.415-4.437-8.786-12.145-4.9-2.634"/>
            <g transform="translate(907)">
                <mask id="D" fill="#fff">
                    <use xlink:href="#C"/>
                </mask>
                <path fill="#FEFEFE" d="M6.159 4.128C9.106 2.727 9.825 1.242 9.37 0H.41c.024.715.247 1.58.727 2.613 1.065 2.299 4.5 1.763 5.02 1.515" mask="url(#D)"/>
            </g>
            <path fill="#FEFEFE" d="M995.829 41.23c7.309 10.143 11.386-11.807 2.49-4.641-.747.604-3.605 3.096-2.49 4.642M1166.968 5.507c5.303 1.516 6.386-2.534 5.41-5.507h-6.327c-.924 2.187-.386 5.135.917 5.507"/>
            <g transform="translate(1086)">
                <mask id="F" fill="#fff">
                    <use xlink:href="#E"/>
                </mask>
                <path fill="#FEFEFE" d="M7.312 1.488C8.134 1.067 8.602.557 8.796 0H.409c.917 1.952 3.033 3.467 6.903 1.488" mask="url(#F)"/>
            </g>
            <g transform="translate(1192 43)">
                <mask id="H" fill="#fff">
                    <use xlink:href="#G"/>
                </mask>
                <path fill="#FEFEFE" d="M5.656.813C-4.448-3.04 2.933 9.855 8 9.097V1.893A18.095 18.095 0 0 0 5.656.813" mask="url(#H)"/>
            </g>
            <path fill="#FEFEFE" d="M1183.33 36.772c5.213-4.786 1.827-6.61-.708-6.907-8.08-.954-.573 11.928.709 6.907M1191.526 16.74c-5.887 2.383-4.26 11.967 1.517 8.79.577-.315.592-.926.304-1.256.102-.125 1.86-9.025-1.821-7.533M1053.376 21.152c1.613.47 7.439-3.212 1.993-8.166-5.12-4.656-7.072 11.895-1.993 8.166M1057.65 29.634c-2.763-1.248-6.982.813-3.56 6.358 1.966 3.177 5.26 2.685 5.34 1.86 4.376-2.029 2.557-6.26-1.78-8.218M1162.635 13.767c3.896-2.341 1.412-6.366-3.124-7.955-2.892-1.013-6.63 1.348-2.368 6.541 2.446 2.975 5.556 2.232 5.492 1.414M1080.847 34.798c-.064 1.332 4.231 1.285 5.903-.548 1.764-1.936-.202-6.829-2.306-7.517-1.69-.553-4.582-.033-4.124 7.386a.736.736 0 0 0 .527.68M1106.29 23.573c-4.687-6.245-8.7 5.55-5.118 6.446.878 1.947 8.92-1.391 5.118-6.446M1092.435 17.601c1.53-.466 1.167-5.812-1.368-7.4h-3.303c-.168.08-.34.171-.515.274-7.177 4.216 3.507 11.084 5.186 7.126M1101.287 14.192a.694.694 0 0 0 .687.511c14.537.165-.047-16.358-2.156-4.05-.218 1.28-.134 3.38 1.469 3.54M1136.126 17.485c.4 6.25 10.545-11.772 1.268-9.202-5.503 1.526-3.373 9.787-1.268 9.202M1126.457 48.14c4.711 4.773 7.84-14.32.36-7.75-2.78 2.445-2.995 7.229-.36 7.75M1069.545 9.467c1.953 3.944 10.007 1.303 7.697-2.97-2.504-4.626-11.8.664-7.697 2.97M1139.832 26.682c1.104 5.193 12.438-1.902 6.93-5.193-7.134-4.263-7.083 4.47-6.93 5.193M1171.67 41.814c-1.31-1.679-3.455-2.2-5.44-.043-1.79 1.947-3.539 6.513.432 7.755 6.344 1.988 6.476-5.83 5.008-7.712M1176.74 20.615c.059 1.988 5.49-.13 5.736-3.303.515-6.634-8.354-7.326-7.671.434.1 1.118.589 2.813 1.936 2.87M1193.505 4.2c-.8-2.486-4.986-1.249-5.559-.705-12.189 1.736 9.228 12.17 5.56.704M1090.591 42.364c-.663 3.563 2.08 5.918 2.94 5.034.758.364 5.24-.484 5.307-4.708.096-5.972-7.685-3.34-8.247-.326M1108.817 46.942c9.48-3.493 5.758-6.74 4.802-7.25-7.58-4.06-7.36 11.48-4.802 7.25M1121.885 8.966c-.643-10.593-4.974-7.786-5.765-6.971-6.285 6.462 9.202 10.792 5.765 6.97M1163.29 21.674c-5.318-.837-1.537 14.928 3.227 9.767 1.762 1.05 4.587-8.54-3.226-9.767M1123.833 26.498c1.185-5.705-13.008-1.545-8.866 3.522-1.073 1.895 7.128 4.856 8.866-3.522M1067.424 46.535c2.86 3.818 5.487 1.19 5.407 1.31 7.02-6.42-11.57-9.53-5.407-1.31M1066.623 24.283c1.802 4.417 5.01 2.54 4.9 2.634 8.416-4.437-8.785-12.145-4.9-2.634"/>
            <g transform="translate(1057)">
                <mask id="J" fill="#fff">
                    <use xlink:href="#I"/>
                </mask>
                <path fill="#FEFEFE" d="M6.159 4.128C9.106 2.727 9.825 1.242 9.37 0H.41c.024.715.247 1.58.727 2.613 1.065 2.299 4.5 1.763 5.02 1.515" mask="url(#J)"/>
            </g>
            <path fill="#FEFEFE" d="M1145.829 41.23c7.309 10.143 11.386-11.807 2.49-4.641-.747.604-3.605 3.096-2.49 4.642"/>
        </g>
        <g>
            <path fill="#FEFEFE" d="M1313.968 5.507c5.303 1.516 6.386-2.534 5.41-5.507h-6.327c-.923 2.187-.385 5.135.917 5.507"/>
            <g transform="translate(1233)">
                <mask id="L" fill="#fff">
                    <use xlink:href="#K"/>
                </mask>
                <path fill="#FEFEFE" d="M7.311 1.488C8.134 1.067 8.602.557 8.797 0H.408c.917 1.952 3.034 3.467 6.903 1.488" mask="url(#L)"/>
            </g>
            <path fill="#FEFEFE" d="M1347 52.098c.717-.107 1.387-.488 1.955-1.227 1.054.739 3.63-2.861-1.955-5.978a18.082 18.082 0 0 0-2.344-1.08c-10.104-3.852-2.722 9.043 2.344 8.285M1330.331 36.772c5.211-4.786 1.826-6.61-.709-6.907-8.08-.954-.574 11.928.71 6.907M1338.526 16.74c-5.887 2.383-4.259 11.967 1.517 8.79.576-.315.592-.926.303-1.256.102-.125 1.861-9.025-1.82-7.533M1200.376 21.152c1.613.47 7.439-3.212 1.993-8.166-5.119-4.656-7.073 11.895-1.993 8.166M1204.65 29.634c-2.763-1.248-6.983.813-3.56 6.358 1.966 3.177 5.262 2.685 5.34 1.86 4.376-2.029 2.557-6.26-1.78-8.218M1309.635 13.767c3.896-2.341 1.412-6.366-3.124-7.955-2.89-1.013-6.63 1.348-2.368 6.541 2.447 2.975 5.556 2.232 5.492 1.414M1227.848 34.798c-.065 1.332 4.23 1.285 5.902-.548 1.765-1.936-.201-6.829-2.306-7.517-1.69-.553-4.582-.033-4.124 7.386a.737.737 0 0 0 .528.68M1253.29 23.573c-4.687-6.245-8.7 5.55-5.119 6.446.878 1.947 8.921-1.391 5.119-6.446M1239.435 17.601c1.53-.466 1.167-5.812-1.369-7.4h-3.302c-.168.08-.339.171-.515.274-7.178 4.216 3.508 11.084 5.186 7.126M1248.287 14.192a.693.693 0 0 0 .687.511c14.536.165-.048-16.358-2.156-4.05-.218 1.28-.134 3.38 1.47 3.54M1283.126 17.485c.4 6.25 10.545-11.772 1.268-9.202-5.503 1.526-3.373 9.787-1.268 9.202M1273.458 48.14c4.711 4.773 7.839-14.32.36-7.75-2.782 2.445-2.996 7.229-.36 7.75M1216.545 9.467c1.954 3.944 10.007 1.303 7.698-2.97-2.504-4.626-11.8.664-7.698 2.97M1286.832 26.682c1.104 5.193 12.438-1.902 6.93-5.193-7.135-4.263-7.083 4.47-6.93 5.193M1318.67 41.814c-1.311-1.679-3.455-2.2-5.44-.043-1.79 1.947-3.54 6.513.432 7.755 6.344 1.988 6.476-5.83 5.009-7.712M1323.74 20.615c.059 1.988 5.49-.13 5.736-3.303.515-6.634-8.354-7.326-7.67.434.1 1.118.589 2.813 1.935 2.87M1340.505 4.2c-.799-2.486-4.986-1.249-5.559-.705-12.189 1.736 9.228 12.17 5.56.704M1237.591 42.364c-.663 3.563 2.08 5.918 2.94 5.034.758.364 5.24-.484 5.308-4.708.095-5.972-7.686-3.34-8.248-.326M1255.817 46.942c9.48-3.493 5.757-6.74 4.802-7.25-7.58-4.06-7.36 11.48-4.802 7.25M1268.885 8.966c-.642-10.593-4.973-7.786-5.764-6.971-6.285 6.462 9.2 10.792 5.764 6.97M1310.291 21.674c-5.32-.837-1.539 14.928 3.225 9.767 1.762 1.05 4.588-8.54-3.225-9.767M1270.834 26.498c1.185-5.705-13.008-1.545-8.867 3.522-1.073 1.895 7.128 4.856 8.867-3.522M1214.424 46.535c2.86 3.818 5.488 1.19 5.407 1.31 7.02-6.42-11.57-9.53-5.407-1.31M1213.623 24.283c1.802 4.417 5.008 2.54 4.9 2.634 8.416-4.437-8.785-12.145-4.9-2.634"/>
            <g transform="translate(1204)">
                <mask id="N" fill="#fff">
                    <use xlink:href="#M"/>
                </mask>
                <path fill="#FEFEFE" d="M6.16 4.128C9.105 2.727 9.824 1.242 9.37 0H.411c.024.715.247 1.58.726 2.613 1.065 2.299 4.5 1.763 5.022 1.515" mask="url(#N)"/>
            </g>
            <path fill="#FEFEFE" d="M1198.955 50.87c1.054.74 3.63-2.86-1.955-5.977v7.204c.717-.107 1.387-.488 1.955-1.227M1292.828 41.23c7.31 10.143 11.387-11.807 2.491-4.641-.748.604-3.605 3.096-2.49 4.642"/>
            <g transform="translate(1383)">
                <mask id="P" fill="#fff">
                    <use xlink:href="#O"/>
                </mask>
                <path fill="#FEFEFE" d="M7.311 1.488C8.134 1.067 8.602.557 8.797 0H.408c.917 1.952 3.034 3.467 6.903 1.488" mask="url(#P)"/>
            </g>
            <path fill="#FEFEFE" d="M1350.376 21.152c1.613.47 7.439-3.212 1.993-8.166-5.119-4.656-7.073 11.895-1.993 8.166M1354.65 29.634c-2.763-1.248-6.983.813-3.56 6.358 1.966 3.177 5.262 2.685 5.34 1.86 4.376-2.029 2.557-6.26-1.78-8.218M1377.848 34.798c-.065 1.332 4.23 1.285 5.902-.548 1.765-1.936-.201-6.829-2.306-7.517-1.69-.553-4.582-.033-4.124 7.386a.737.737 0 0 0 .528.68M1403.29 23.573c-4.687-6.245-8.7 5.55-5.119 6.446.878 1.947 8.921-1.391 5.119-6.446M1389.435 17.601c1.53-.466 1.167-5.812-1.369-7.4h-3.302c-.168.08-.339.171-.515.274-7.178 4.216 3.508 11.084 5.186 7.126M1398.287 14.192a.693.693 0 0 0 .687.511c14.536.165-.048-16.358-2.156-4.05-.218 1.28-.134 3.38 1.47 3.54M1433.126 17.485c.4 6.25 10.545-11.772 1.268-9.202-5.503 1.526-3.373 9.787-1.268 9.202M1423.458 48.14c4.711 4.773 7.839-14.32.36-7.75-2.782 2.445-2.996 7.229-.36 7.75M1366.545 9.467c1.954 3.944 10.007 1.303 7.698-2.97-2.504-4.626-11.8.664-7.698 2.97M1436.832 26.682c1.104 5.193 12.438-1.902 6.93-5.193-7.135-4.263-7.083 4.47-6.93 5.193M1387.591 42.364c-.663 3.563 2.08 5.918 2.94 5.034.758.364 5.24-.484 5.308-4.708.095-5.972-7.686-3.34-8.248-.326M1405.817 46.942c9.48-3.493 5.757-6.74 4.802-7.25-7.58-4.06-7.36 11.48-4.802 7.25M1418.885 8.966c-.642-10.593-4.973-7.786-5.764-6.971-6.285 6.462 9.2 10.792 5.764 6.97M1420.834 26.498c1.185-5.705-13.008-1.545-8.867 3.522-1.073 1.895 7.128 4.856 8.867-3.522M1364.424 46.535c2.86 3.818 5.488 1.19 5.407 1.31 7.02-6.42-11.57-9.53-5.407-1.31M1363.623 24.283c1.802 4.417 5.008 2.54 4.9 2.634 8.416-4.437-8.785-12.145-4.9-2.634"/>
            <g transform="translate(1354)">
                <mask id="R" fill="#fff">
                    <use xlink:href="#Q"/>
                </mask>
                <path fill="#FEFEFE" d="M6.16 4.128C9.105 2.727 9.824 1.242 9.37 0H.411c.024.715.247 1.58.726 2.613 1.065 2.299 4.5 1.763 5.022 1.515" mask="url(#R)"/>
            </g>
        </g>
    </g>
</svg>
